<?xml version="1.0" encoding="UTF-8" standalone="no"?>
<!-- Created with Inkscape (http://www.inkscape.org/) -->

<svg
   width="197.33061"
   height="737.80682"
   viewBox="0 0 52.21039 195.21139"
   version="1.1"
   id="svg979"
   xmlns="http://www.w3.org/2000/svg"
   xmlns:svg="http://www.w3.org/2000/svg"
   xmlns:rdf="http://www.w3.org/1999/02/22-rdf-syntax-ns#"
   xmlns:cc="http://creativecommons.org/ns#"
   xmlns:dc="http://purl.org/dc/elements/1.1/">
  <defs
     id="defs976">
    <rect
       x="0"
       y="0"
       width="636.21484"
       height="197.33078"
       id="rect3" />
    <rect
       x="158.19209"
       y="338.17596"
       width="347.05408"
       height="161.82405"
       id="rect1" />
  </defs>
  <g
     id="layer1"
     transform="translate(-99.191288,-16.902207)">
    <path
       d="m 139.67745,211.61354 q -5.89268,0 -9.25994,-4.09643 -3.43739,-4.09643 -3.43739,-11.14767 v -7.9914 h -3.43741 q -2.03438,0 -3.2971,1.67887 -1.26271,1.61171 -1.26271,4.4322 0,2.48472 0.98211,4.16359 0.91196,1.61171 2.52543,2.08179 v 9.73742 q -2.66574,-0.40293 -4.77027,-1.67886 -2.17468,-1.3431 -3.64785,-3.42489 -1.54333,-2.08179 -2.31499,-4.83513 -0.84181,-2.75334 -0.84181,-6.04392 0,-3.62635 0.91196,-6.58115 0.91197,-3.02196 2.59559,-5.10375 1.61347,-2.14895 3.92846,-3.29058 2.31499,-1.20878 5.19118,-1.20878 h 26.65741 v 9.60311 h -7.71662 v 0.60439 q 3.92846,0.47008 6.17329,3.55919 2.24483,3.02196 2.24483,7.8571 0,5.37237 -3.01649,8.52863 -3.0165,3.15627 -8.20768,3.15627 z m -1.68362,-10.07319 q 2.24483,0 3.57771,-1.47741 1.26271,-1.54455 1.26271,-4.36505 0,-3.22342 -1.54332,-5.23806 -1.61348,-2.08179 -4.06877,-2.08179 h -3.92845 v 7.9914 q 0,2.35041 1.26272,3.76066 1.19257,1.41025 3.4374,1.41025 z m -38.302482,-31.5627 v -10.0732 h 11.925682 q 0.98211,0 2.17468,0.0672 1.12242,0 2.10453,0.0672 1.19257,0.13431 2.38514,0.20146 v -0.67154 q -3.4374,-0.53724 -5.40163,-3.02196 -1.96423,-2.55188 -1.96423,-6.514 0,-2.9548 1.05226,-5.30521 1.05227,-2.35042 3.0165,-4.02928 1.96423,-1.74602 4.77028,-2.61903 2.80604,-0.94016 6.24343,-0.94016 h 9.4704 q 3.5777,0 6.4539,0.94016 2.80604,0.87301 4.84042,2.61903 1.96423,1.67886 3.08665,4.02928 1.05226,2.35041 1.05226,5.30521 0,3.96212 -1.96422,6.514 -1.96423,2.48472 -5.47179,3.02196 v 0.60439 h 6.73451 v 9.80457 z m 35.777042,-10.0732 q 2.7359,0 4.48967,-1.67886 1.75378,-1.67887 1.75378,-4.70083 0,-3.02195 -1.82393,-4.63367 -1.82393,-1.67886 -4.77027,-1.67886 h -8.76888 q -2.94636,0 -4.62998,1.74602 -1.68363,1.67887 -1.68363,4.56651 0,2.88765 1.75379,4.63367 1.68362,1.74602 4.55982,1.74602 z m 15.43323,-46.13525 q 0,3.82782 -1.12241,6.98409 -1.12242,3.0891 -3.15679,5.30521 -2.10454,2.2161 -4.91058,3.42488 -2.8762,1.20879 -6.24345,1.20879 h -9.18979 q -3.36725,0 -6.17329,-1.20879 -2.8762,-1.20878 -4.91058,-3.42488 -2.03437,-2.21611 -3.15679,-5.30521 -1.12242,-3.15627 -1.12242,-6.98409 0,-3.82781 1.12242,-6.91693 1.12242,-3.15626 3.15679,-5.37237 2.03438,-2.216094 4.91058,-3.424881 2.80604,-1.208786 6.17329,-1.208786 h 9.18979 q 3.36725,0 6.24345,1.208786 2.80604,1.208787 4.91058,3.424881 2.03437,2.21611 3.15679,5.37237 1.12241,3.08912 1.12241,6.91693 z m -15.43323,6.84977 q 2.8762,0 4.55982,-1.81317 1.68363,-1.88033 1.68363,-5.0366 0,-3.15627 -1.68363,-4.96944 -1.68362,-1.88033 -4.55982,-1.88033 h -9.18979 q -2.8762,0 -4.55982,1.88033 -1.68363,1.81317 -1.68363,4.96944 0,3.15627 1.68363,5.0366 1.68362,1.81317 4.55982,1.81317 z M 111.61703,79.184546 h 23.50061 q 6.66435,0 6.66435,-5.708141 0,-5.708151 -6.66435,-5.708151 h -23.50061 v -10.07319 h 23.57076 q 7.436,0 11.57492,4.230743 4.13891,4.163584 4.13891,11.550598 0,7.52131 -4.13891,11.684904 -4.20906,4.096426 -11.57492,4.096426 h -23.57076 z m 0,-28.204964 V 41.242153 H 99.691348 V 31.168964 H 111.61703 V 17.402267 h 9.47039 v 13.766697 h 15.78399 q 1.82393,0 2.8762,-0.940164 0.98211,-1.007322 0.98211,-2.753343 v -9.401648 h 9.4704 v 10.40897 q 0,5.976763 -3.50756,9.401648 -3.5777,3.357726 -9.82115,3.357726 h -15.78399 v 9.737429 z"
       id="text4"
       style="font-weight:800;font-size:68.6365px;font-family:'JetBrains Mono';-inkscape-font-specification:'JetBrains Mono Ultra-Bold';fill:#0c0c0c;stroke:#181818;stroke-width:1.00012;stroke-linecap:round"
       aria-label="about" />
    <text
       xml:space="preserve"
       style="font-weight:800;font-size:3.175px;font-family:'JetBrains Mono';-inkscape-font-specification:'JetBrains Mono Ultra-Bold';fill:#0c0c0c;stroke:#341f3e;stroke-width:0.79375;stroke-linecap:round"
       x="27.69079"
       y="180.08334"
       id="text2"><tspan
         id="tspan1"
         style="stroke-width:0.79375"
         x="27.69079"
         y="180.08334" /></text>
    <text
       xml:space="preserve"
       transform="matrix(0.26458333,0,0,0.26458333,27.69079,88.402679)"
       id="text3"
       style="font-weight:800;font-size:192px;font-family:'JetBrains Mono';-inkscape-font-specification:'JetBrains Mono Ultra-Bold';white-space:pre;shape-inside:url(#rect3);display:inline;fill:#0c0c0c;stroke:#341f3e;stroke-width:3;stroke-linecap:round"><tspan
         x="0"
         y="371.52363"
         id="tspan4"><tspan
           dx="0 32 32 32 32"
           style="font-size:53.3333px"
           id="tspan2">about</tspan></tspan></text>
  </g>
  <metadata
     id="metadata1121">
    <rdf:RDF>
      <cc:Work
         rdf:about="">
        <dc:creator>
          <cc:Agent>
            <dc:title>Max Caplan</dc:title>
          </cc:Agent>
        </dc:creator>
        <cc:license
           rdf:resource="http://creativecommons.org/licenses/by-nc/4.0/" />
      </cc:Work>
      <cc:License
         rdf:about="http://creativecommons.org/licenses/by-nc/4.0/">
        <cc:permits
           rdf:resource="http://creativecommons.org/ns#Reproduction" />
        <cc:permits
           rdf:resource="http://creativecommons.org/ns#Distribution" />
        <cc:requires
           rdf:resource="http://creativecommons.org/ns#Notice" />
        <cc:requires
           rdf:resource="http://creativecommons.org/ns#Attribution" />
        <cc:prohibits
           rdf:resource="http://creativecommons.org/ns#CommercialUse" />
        <cc:permits
           rdf:resource="http://creativecommons.org/ns#DerivativeWorks" />
      </cc:License>
    </rdf:RDF>
  </metadata>
</svg>
