<?xml version="1.0" encoding="UTF-8" standalone="no"?>
<!-- Created with Inkscape (http://www.inkscape.org/) -->

<svg
   width="636.21484"
   height="197.33078"
   viewBox="0 0 168.33184 52.210435"
   version="1.1"
   id="svg979"
   xmlns="http://www.w3.org/2000/svg"
   xmlns:svg="http://www.w3.org/2000/svg"
   xmlns:rdf="http://www.w3.org/1999/02/22-rdf-syntax-ns#"
   xmlns:cc="http://creativecommons.org/ns#"
   xmlns:dc="http://purl.org/dc/elements/1.1/">
  <defs
     id="defs976">
    <rect
       x="158.19209"
       y="338.17596"
       width="347.05408"
       height="161.82405"
       id="rect1" />
  </defs>
  <g
     id="layer1"
     transform="translate(-27.69079,-88.402679)">
    <path
       style="font-weight:800;font-family:'JetBrains Mono';-inkscape-font-specification:'JetBrains Mono Ultra-Bold';white-space:pre;fill:#0c0c0c;fill-opacity:1;stroke:#121212;stroke-width:0.79375;stroke-linecap:round;stroke-dasharray:none;stroke-opacity:1"
       d="m 28.143128,100.7733 h 7.975563 l 2.682048,22.32752 q 0.14116,1.05651 0.21174,2.88779 0.141161,1.76085 0.211741,3.52169 0.14116,2.11302 0.21174,4.3669 h 0.846963 q 0.21174,-2.32432 0.423481,-4.3669 0.211741,-1.76084 0.423481,-3.59212 0.282321,-1.83128 0.423481,-2.81736 l 3.811331,-22.32752 h 6.634539 l 3.811331,22.32752 q 0.211741,1.05651 0.352901,2.88779 0.211741,1.76085 0.352901,3.52169 0.211741,2.11302 0.352901,4.3669 h 0.846963 q 0.14116,-2.25388 0.282321,-4.3669 0.14116,-1.76084 0.21174,-3.52169 0.141161,-1.83128 0.282321,-2.88779 l 2.540887,-22.32752 h 8.046143 L 63.92729,139.5119 H 53.12852 l -3.529011,-23.24316 q -0.14116,-0.98607 -0.21174,-2.53561 -0.07058,-1.54955 -0.141161,-3.02866 -0.07058,-1.69041 -0.07058,-3.59212 h -0.846962 q 0,1.90171 -0.07058,3.59212 -0.07058,1.47911 -0.211741,3.02866 -0.07058,1.54954 -0.211741,2.53561 l -3.74075,23.24316 H 33.224903 Z m 62.81638,39.44294 q -4.023072,0 -7.340341,-1.12694 -3.246689,-1.12694 -5.575836,-3.16952 -2.329147,-2.11302 -3.59959,-4.93037 -1.270444,-2.88779 -1.270444,-6.26861 v -9.22683 q 0,-3.38082 1.270444,-6.19817 1.270443,-2.88779 3.59959,-4.93037 2.329147,-2.04258 5.575836,-3.16952 3.317269,-1.12695 7.340341,-1.12695 4.023071,0 7.269761,1.12695 3.317271,1.12694 5.646411,3.16952 2.32915,2.04258 3.5996,4.93037 1.27044,2.81735 1.27044,6.19817 v 9.22683 q 0,3.38082 -1.27044,6.26861 -1.27045,2.81735 -3.5996,4.93037 -2.32914,2.04258 -5.646411,3.16952 -3.24669,1.12694 -7.269761,1.12694 z M 83.760327,124.7208 q 0,2.88779 1.905666,4.5782 1.976245,1.69041 5.293515,1.69041 3.317269,0 5.222935,-1.69041 1.976245,-1.69041 1.976245,-4.5782 v -9.22683 q 0,-2.88779 -1.976245,-4.5782 -1.905666,-1.69041 -5.222935,-1.69041 -3.31727,0 -5.293515,1.69041 -1.905666,1.69041 -1.905666,4.5782 z m 44.183263,-23.9475 v 6.69122 h 0.7058 q 0.56465,-3.59213 3.31727,-5.49384 2.75263,-1.90172 7.26976,-1.90172 6.4228,0 9.95181,3.9443 3.52901,3.87386 3.52901,10.84681 v 3.16952 h -11.29283 v -2.46519 q 0,-3.16952 -1.83508,-4.93036 -1.83509,-1.76085 -5.0112,-1.76085 -2.82321,0 -4.44655,1.83128 -1.62335,1.76085 -1.62335,4.85993 v 23.9475 H 117.9212 v -38.7386 z m 31.47877,-11.973746 h 10.58703 v 26.623986 h 5.22294 l 8.11672,-14.65024 h 11.78689 l -10.79877,18.9467 11.01052,19.7919 h -11.99864 l -8.1873,-15.2137 h -5.15236 v 15.2137 h -10.58703 z"
       id="text1"
       aria-label="work" />
  </g>
  <metadata
     id="metadata1121">
    <rdf:RDF>
      <cc:Work
         rdf:about="">
        <dc:creator>
          <cc:Agent>
            <dc:title>Max Caplan</dc:title>
          </cc:Agent>
        </dc:creator>
        <cc:license
           rdf:resource="http://creativecommons.org/licenses/by-nc/4.0/" />
      </cc:Work>
      <cc:License
         rdf:about="http://creativecommons.org/licenses/by-nc/4.0/">
        <cc:permits
           rdf:resource="http://creativecommons.org/ns#Reproduction" />
        <cc:permits
           rdf:resource="http://creativecommons.org/ns#Distribution" />
        <cc:requires
           rdf:resource="http://creativecommons.org/ns#Notice" />
        <cc:requires
           rdf:resource="http://creativecommons.org/ns#Attribution" />
        <cc:prohibits
           rdf:resource="http://creativecommons.org/ns#CommercialUse" />
        <cc:permits
           rdf:resource="http://creativecommons.org/ns#DerivativeWorks" />
      </cc:License>
    </rdf:RDF>
  </metadata>
</svg>
