<?xml version="1.0" encoding="UTF-8" standalone="no"?>
<!-- Created with Inkscape (http://www.inkscape.org/) -->

<svg
   width="89.857887mm"
   height="14.18167mm"
   viewBox="0 0 89.857886 14.18167"
   version="1.1"
   id="svg3893"
   inkscape:version="1.2.1 (9c6d41e410, 2022-07-14)"
   sodipodi:docname="logo_dark.svg"
   xmlns:inkscape="http://www.inkscape.org/namespaces/inkscape"
   xmlns:sodipodi="http://sodipodi.sourceforge.net/DTD/sodipodi-0.dtd"
   xmlns="http://www.w3.org/2000/svg"
   xmlns:svg="http://www.w3.org/2000/svg">
  <sodipodi:namedview
     id="namedview3895"
     pagecolor="#ffffff"
     bordercolor="#000000"
     borderopacity="0.25"
     inkscape:showpageshadow="2"
     inkscape:pageopacity="0.0"
     inkscape:pagecheckerboard="0"
     inkscape:deskcolor="#d1d1d1"
     inkscape:document-units="mm"
     showgrid="false"
     inkscape:zoom="3.3638608"
     inkscape:cx="139.27449"
     inkscape:cy="-6.5401041"
     inkscape:window-width="2560"
     inkscape:window-height="1528"
     inkscape:window-x="0"
     inkscape:window-y="36"
     inkscape:window-maximized="1"
     inkscape:current-layer="layer1" />
  <defs
     id="defs3890" />
  <g
     inkscape:label="Layer 1"
     inkscape:groupmode="layer"
     id="layer1"
     transform="translate(-91.361001,-169.3513)">
    <path
       id="path2871"
       style="fill:#ffffff;fill-opacity:1;stroke:none;stroke-width:0.999999;stroke-dasharray:none;stroke-opacity:1"
       d="m 126.04584,169.35156 v 6.09977 c 0,-0.51761 0.096,-0.9819 0.28615,-1.39385 0.19011,-0.42253 0.45946,-0.78121 0.80806,-1.077 0.34857,-0.29575 0.76547,-0.52313 1.25138,-0.68159 0.49649,-0.16896 1.04597,-0.25421 1.64806,-0.25421 0.52816,0 1.01944,0.0744 1.47368,0.2222 0.4542,0.14782 0.8549,0.35896 1.20349,0.63368 0.34858,0.27464 0.63953,0.60756 0.87192,0.99841 0.23241,0.39083 0.39076,0.82933 0.47526,1.31524 h -2.37629 c -0.0739,-0.33803 -0.25934,-0.60735 -0.55509,-0.80806 -0.29577,-0.20081 -0.65986,-0.30088 -1.09297,-0.30088 -0.50704,0 -0.90354,0.12048 -1.18876,0.36352 -0.2852,0.23242 -0.42736,0.55991 -0.42736,0.98244 v 2.23383 c 0,0.42253 0.14211,0.75005 0.42736,0.98244 0.28522,0.23242 0.68172,0.34879 1.18876,0.34879 0.42255,0 0.78123,-0.10028 1.077,-0.30088 0.29577,-0.21126 0.48655,-0.486 0.57106,-0.82403 h 2.37629 c -0.0844,0.48591 -0.2428,0.92441 -0.47526,1.31524 -0.23242,0.39083 -0.52334,0.72916 -0.87192,1.01438 -0.34859,0.27465 -0.74929,0.48579 -1.20349,0.63368 -0.45424,0.14781 -0.94552,0.2222 -1.47368,0.2222 -0.60209,0 -1.15157,-0.0798 -1.64806,-0.23827 -0.48591,-0.1585 -0.90281,-0.38579 -1.25138,-0.68156 -0.3486,-0.29577 -0.61792,-0.64907 -0.80806,-1.06105 -0.19012,-0.42249 -0.28615,-0.89219 -0.28615,-1.4098 v 5.84677 h 19.17245 v -11.33004 h 2.29768 v 1.50559 h 0.1585 c 0.0844,-0.51761 0.32258,-0.9237 0.71351,-1.21947 0.40138,-0.29577 0.91305,-0.44456 1.53629,-0.44456 0.46478,0 0.88292,0.0798 1.25262,0.23827 0.3697,0.1585 0.68643,0.38579 0.9505,0.68156 0.27467,0.29577 0.4804,0.65447 0.61773,1.077 0.14782,0.42253 0.2222,0.89221 0.2222,1.40982 v 2.13927 c 0,0.53873 -0.0744,1.0246 -0.2222,1.4577 -0.13735,0.42253 -0.34311,0.78663 -0.61773,1.09297 -0.26407,0.29577 -0.5808,0.52852 -0.9505,0.69753 -0.3697,0.15851 -0.78784,0.23827 -1.25262,0.23827 -0.62324,0 -1.13491,-0.14877 -1.53629,-0.44456 -0.39086,-0.29578 -0.629,-0.70728 -0.71351,-1.23544 h -0.1585 c 0.0119,0.0844 0.0273,0.27521 0.048,0.57106 0.0214,0.29577 0.0318,0.61247 0.0318,0.9505 v 2.61453 h 33.62298 v -2.61453 h -2.3775 v -5.38748 c 0,-0.44365 -0.12595,-0.7928 -0.37947,-1.04632 -0.24297,-0.25347 -0.57588,-0.37947 -0.99841,-0.37947 -0.42253,0 -0.76087,0.12595 -1.01438,0.37947 -0.24297,0.25352 -0.36474,0.60267 -0.36474,1.04632 v 5.38748 H 173.708 v -8.71551 h 2.24982 v 1.50559 h 0.15851 c 0.0739,-0.52816 0.30672,-0.93425 0.69753,-1.21947 0.39085,-0.29577 0.9025,-0.44456 1.53629,-0.44456 0.88731,0 1.58556,0.29095 2.09262,0.87194 0.51759,0.58097 0.77612,1.37277 0.77612,2.3763 v -5.94136 H 159.1937 v 8.55589 c 0,0.27462 0.0744,0.49118 0.2222,0.64964 0.15851,0.14782 0.375,0.2222 0.64964,0.2222 h 2.61454 v 2.13927 h -2.85277 c -0.94012,0 -1.67915,-0.26514 -2.21788,-0.79333 -0.52817,-0.53871 -0.79209,-1.27774 -0.79209,-2.21786 v -6.41661 h -2.69436 v -2.13927 z m 13.38951,2.69312 c 0.57044,0 1.08748,0.0689 1.55226,0.20628 0.47536,0.13736 0.87729,0.3323 1.20474,0.58579 0.33802,0.24294 0.59655,0.53928 0.77614,0.88788 0.19012,0.34858 0.28489,0.73969 0.28489,1.1728 v 6.02115 h -2.26577 v -1.74383 h -0.14235 c -0.0739,0.59154 -0.35411,1.05704 -0.84,1.39507 -0.47533,0.33802 -1.08177,0.5072 -1.8212,0.5072 -0.85561,0 -1.53767,-0.22743 -2.04471,-0.68159 -0.49648,-0.45421 -0.7442,-1.07267 -0.7442,-1.85435 0,-0.88732 0.32212,-1.58435 0.96647,-2.09139 0.64437,-0.51761 1.52137,-0.77614 2.6305,-0.77614 h 1.88508 v -0.77612 c 0,-0.30635 -0.1326,-0.55528 -0.39667,-0.74544 -0.25352,-0.19012 -0.60141,-0.28491 -1.04509,-0.28491 -0.39083,0 -0.71835,0.0744 -0.98244,0.22219 -0.25352,0.13736 -0.41725,0.32688 -0.49121,0.56983 h -2.2977 c 0.0635,-0.40143 0.19605,-0.76011 0.39667,-1.07703 0.21127,-0.32745 0.48059,-0.60219 0.80806,-0.82403 0.32747,-0.23241 0.70777,-0.40694 1.14086,-0.52315 0.4331,-0.12666 0.90818,-0.19035 1.42576,-0.19035 z m 28.52041,0 c 0.57042,0 1.08872,0.0689 1.5535,0.20628 0.47534,0.13736 0.87603,0.3323 1.2035,0.58579 0.33803,0.24294 0.59779,0.53928 0.77736,0.88788 0.19011,0.34858 0.28491,0.73969 0.28491,1.1728 v 6.02115 h -2.26577 v -1.74383 h -0.14258 c -0.0739,0.59154 -0.35412,1.05704 -0.84,1.39507 -0.47534,0.33802 -1.08299,0.5072 -1.82242,0.5072 -0.85564,0 -1.53646,-0.22743 -2.0435,-0.68159 -0.49648,-0.45421 -0.74544,-1.07267 -0.74544,-1.85435 0,-0.88732 0.32213,-1.58435 0.9665,-2.09139 0.64435,-0.51761 1.52135,-0.77614 2.6305,-0.77614 h 1.88506 v -0.77612 c 0,-0.30635 -0.13142,-0.55528 -0.39544,-0.74544 -0.25352,-0.19012 -0.60264,-0.28491 -1.0463,-0.28491 -0.39085,0 -0.71837,0.0744 -0.98244,0.22219 -0.25352,0.13736 -0.41728,0.32688 -0.49123,0.56983 h -2.29647 c 0.0635,-0.40143 0.19463,-0.76011 0.39544,-1.07703 0.21126,-0.32745 0.48059,-0.60219 0.80806,-0.82403 0.32747,-0.23241 0.70777,-0.40694 1.14088,-0.52315 0.43308,-0.12666 0.90815,-0.19035 1.42576,-0.19035 z m -18.85559,2.06068 c -0.45421,0 -0.81833,0.13142 -1.09297,0.39544 -0.27464,0.25352 -0.41141,0.59725 -0.41141,1.03035 v 2.05945 c 0,0.41198 0.13142,0.75028 0.39544,1.01438 0.26409,0.26409 0.63361,0.39544 1.10894,0.39544 0.47536,0 0.84069,-0.13665 1.09421,-0.41141 0.26407,-0.27465 0.39541,-0.63335 0.39541,-1.077 v -1.98086 c 0,-0.44365 -0.13664,-0.7928 -0.41138,-1.04632 -0.2641,-0.25347 -0.62401,-0.37947 -1.07824,-0.37947 z m -10.10815,2.99403 c -0.3697,0 -0.66604,0.0948 -0.88788,0.28491 -0.22172,0.17966 -0.3328,0.43933 -0.3328,0.77735 0,0.33803 0.11645,0.60737 0.34877,0.80806 0.24294,0.19012 0.58667,0.28491 1.03035,0.28491 0.50704,0 0.91852,-0.11644 1.23541,-0.34876 0.32745,-0.24297 0.49124,-0.54889 0.49124,-0.91859 v -0.88788 z m 28.52042,0 c -0.36973,0 -0.66486,0.0948 -0.88667,0.28491 -0.22172,0.17966 -0.3328,0.43933 -0.3328,0.77735 0,0.33803 0.11526,0.60737 0.34753,0.80806 0.24297,0.19012 0.5867,0.28491 1.03035,0.28491 0.50704,0 0.91854,-0.11644 1.23542,-0.34876 0.32747,-0.24297 0.49123,-0.54889 0.49123,-0.91859 v -0.88788 z" />
    <g
       id="g3734"
       style="fill:#ffffff;fill-opacity:1;stroke-width:0.420798"
       transform="matrix(2.3764359,0,0,2.3764359,-35.082692,-191.40771)">
      <path
         d="m 53.95404,153.00714 v 0.53341 h 0.06668 q 0.01333,-0.28004 0.180023,-0.44006 0.166689,-0.16002 0.440057,-0.16002 0.260034,0 0.43339,0.16002 0.180023,0.16002 0.246698,0.44006 h 0.02667 q 0.01334,-0.28004 0.180024,-0.44006 0.166688,-0.16002 0.440057,-0.16002 0.333376,0 0.520067,0.25337 0.193359,0.24669 0.193359,0.68008 v 2.80037 h -0.820107 v -2.68702 q 0,-0.36671 -0.266701,-0.36671 -0.13335,0 -0.186691,0.10001 -0.05334,0.0933 -0.05334,0.2667 v 2.68702 H 54.53412 v -2.68702 q 0,-0.36671 -0.266701,-0.36671 -0.133351,0 -0.186691,0.10001 -0.05334,0.0933 -0.05334,0.2667 v 2.68702 h -0.820107 v -3.66715 z"
         style="font-size:6.66753px;font-family:'JetBrainsMonoExtraBold Nerd Font';-inkscape-font-specification:'JetBrainsMonoExtraBold Nerd Font';fill:#ffffff;fill-opacity:1;stroke-width:0.88368"
         id="path3522" />
      <path
         d="m 57.2278,155.67416 q 0,-0.56008 0.406719,-0.88012 0.406719,-0.32671 1.10681,-0.32671 h 0.793436 v -0.32671 q 0,-0.19335 -0.166688,-0.31337 -0.160021,-0.12001 -0.440057,-0.12001 -0.246699,0 -0.413387,0.0933 -0.160021,0.0867 -0.206693,0.24003 h -0.966792 q 0.04001,-0.25336 0.166688,-0.45339 0.133351,-0.20669 0.340044,-0.34671 0.206693,-0.14669 0.480062,-0.22003 0.273369,-0.08 0.600078,-0.08 0.360046,0 0.653418,0.0867 0.300039,0.0867 0.506732,0.2467 0.213361,0.15335 0.326709,0.37338 0.120016,0.22003 0.120016,0.49339 v 2.53367 h -0.953457 v -0.73343 h -0.06001 q -0.04667,0.37338 -0.353379,0.58674 -0.300039,0.21336 -0.766766,0.21336 -0.54007,0 -0.860111,-0.2867 -0.313374,-0.28671 -0.313374,-0.7801 z m 1.580204,0.30004 q 0.320042,0 0.520068,-0.14669 0.206693,-0.15335 0.206693,-0.38672 v -0.37338 h -0.793436 q -0.233364,0 -0.373382,0.12002 -0.140018,0.11334 -0.140018,0.32671 0,0.21336 0.146686,0.34004 0.153353,0.12002 0.433389,0.12002 z"
         style="font-size:6.66753px;font-family:'JetBrainsMonoExtraBold Nerd Font';-inkscape-font-specification:'JetBrainsMonoExtraBold Nerd Font';fill:#ffffff;fill-opacity:1;stroke-width:0.88368"
         id="path3524" />
      <path
         d="m 62.381803,154.77404 -1.21349,-1.7669 h 1.113477 l 0.5134,0.7601 q 0.03334,0.0533 0.05334,0.10002 0.02667,0.04 0.04001,0.0733 0.01333,0.0467 0.02667,0.08 h 0.05334 q 0.0067,-0.0333 0.02667,-0.0733 0.01334,-0.0333 0.03334,-0.08 0.02667,-0.0467 0.06001,-0.10002 l 0.5134,-0.7601 h 1.113478 l -1.206823,1.7669 1.2935,1.90025 h -1.113477 l -0.59341,-0.88679 q -0.06668,-0.11334 -0.100013,-0.18002 -0.01333,-0.04 -0.02667,-0.0733 h -0.05334 q -0.01333,0.0333 -0.02667,0.0733 -0.01334,0.0333 -0.04001,0.08 -0.02,0.04 -0.05334,0.0934 l -0.600078,0.89345 H 61.08164 Z"
         style="font-size:6.66753px;font-family:'JetBrainsMonoExtraBold Nerd Font';-inkscape-font-specification:'JetBrainsMonoExtraBold Nerd Font';fill:#ffffff;fill-opacity:1;stroke-width:0.88368"
         id="path3526" />
    </g>
  </g>
</svg>
