<?xml version="1.0" encoding="UTF-8" standalone="no"?>
<!-- Created with Inkscape (http://www.inkscape.org/) -->

<svg
   width="87.720024mm"
   height="14.18169mm"
   viewBox="0 0 87.720023 14.18169"
   version="1.1"
   id="svg3893"
   inkscape:version="1.2.1 (9c6d41e410, 2022-07-14)"
   sodipodi:docname="logo_dark.svg"
   xmlns:inkscape="http://www.inkscape.org/namespaces/inkscape"
   xmlns:sodipodi="http://sodipodi.sourceforge.net/DTD/sodipodi-0.dtd"
   xmlns="http://www.w3.org/2000/svg"
   xmlns:svg="http://www.w3.org/2000/svg">
  <sodipodi:namedview
     id="namedview3895"
     pagecolor="#ffffff"
     bordercolor="#000000"
     borderopacity="0.25"
     inkscape:showpageshadow="2"
     inkscape:pageopacity="0.0"
     inkscape:pagecheckerboard="0"
     inkscape:deskcolor="#d1d1d1"
     inkscape:document-units="mm"
     showgrid="false"
     inkscape:zoom="4.7572176"
     inkscape:cx="166.48387"
     inkscape:cy="44.143451"
     inkscape:window-width="2560"
     inkscape:window-height="1528"
     inkscape:window-x="0"
     inkscape:window-y="36"
     inkscape:window-maximized="1"
     inkscape:current-layer="layer1" />
  <defs
     id="defs3890" />
  <g
     inkscape:label="Layer 1"
     inkscape:groupmode="layer"
     id="layer1"
     transform="translate(-93.498865,-169.35129)">
    <g
       id="g911"
       transform="matrix(2.3765082,0,0,2.3765082,-31.108257,-161.50525)" />
    <g
       id="g1893"
       style="fill:#ffffff;fill-opacity:1">
      <path
         id="path897"
         style="fill:#ffffff;fill-opacity:1;stroke:none;stroke-width:2.37113;stroke-dasharray:none;stroke-opacity:1"
         d="M 126.29428 169.35129 L 126.29428 174.0523 L 127.86111 174.0523 L 127.86111 172.48547 L 132.64066 172.48547 L 132.64066 174.0523 L 134.20801 174.0523 L 134.20801 175.69767 L 132.56263 175.69767 L 132.56263 174.13084 L 127.93966 174.13084 L 127.93966 178.7533 L 132.56263 178.7533 L 132.56263 177.18647 L 134.20801 177.18647 L 134.20801 178.83185 L 132.64066 178.83185 L 132.64066 180.39868 L 127.86111 180.39868 L 127.86111 178.83185 L 126.29428 178.83185 L 126.29428 183.53285 L 145.09882 183.53285 L 145.09882 172.48547 L 146.74419 172.48547 L 146.74419 174.0523 L 148.23299 174.0523 L 148.23299 172.48547 L 151.4452 172.48547 L 151.4452 174.0523 L 153.01203 174.0523 L 153.01203 178.83185 L 151.4452 178.83185 L 151.4452 180.39868 L 146.74419 180.39868 L 146.74419 183.53285 L 181.21909 183.53285 L 181.21909 180.39868 L 179.57371 180.39868 L 179.57371 174.13084 L 176.51809 174.13084 L 176.51809 175.69767 L 174.95074 175.69767 L 174.95074 180.39868 L 173.30536 180.39868 L 173.30536 172.48547 L 174.95074 172.48547 L 174.95074 174.0523 L 176.43954 174.0523 L 176.43954 172.48547 L 179.65175 172.48547 L 179.65175 174.0523 L 181.21909 174.0523 L 181.21909 169.35129 L 159.28038 169.35129 L 159.28038 178.7533 L 162.41456 178.7533 L 162.41456 180.39868 L 154.50083 180.39868 L 154.50083 178.7533 L 157.635 178.7533 L 157.635 170.99667 L 154.50083 170.99667 L 154.50083 169.35129 L 126.29428 169.35129 z M 137.26364 172.48547 L 142.04319 172.48547 L 142.04319 174.0523 L 143.61002 174.0523 L 143.61002 180.39868 L 137.26364 180.39868 L 137.26364 178.83185 L 135.69629 178.83185 L 135.69629 177.18647 L 137.26364 177.18647 L 137.26364 175.61964 L 141.96464 175.61964 L 141.96464 174.13084 L 137.26364 174.13084 L 137.26364 172.48547 z M 165.47018 172.48547 L 170.24974 172.48547 L 170.24974 174.0523 L 171.81657 174.0523 L 171.81657 180.39868 L 165.47018 180.39868 L 165.47018 178.83185 L 163.90335 178.83185 L 163.90335 177.18647 L 165.47018 177.18647 L 165.47018 175.61964 L 170.17119 175.61964 L 170.17119 174.13084 L 165.47018 174.13084 L 165.47018 172.48547 z M 148.31102 174.13084 L 148.31102 175.69767 L 146.74419 175.69767 L 146.74419 178.7533 L 151.36665 178.7533 L 151.36665 174.13084 L 148.31102 174.13084 z M 137.34167 177.26502 L 137.34167 178.7533 L 141.96464 178.7533 L 141.96464 177.26502 L 137.34167 177.26502 z M 165.54873 177.26502 L 165.54873 178.7533 L 170.17119 178.7533 L 170.17119 177.26502 L 165.54873 177.26502 z " />
      <g
         id="g1886"
         style="fill:#ffffff;fill-opacity:1">
        <path
           d="m 95.273544,172.20348 v 1.26766 h 0.158465 q 0.03168,-0.66552 0.427826,-1.04581 0.396138,-0.38029 1.045799,-0.38029 0.617973,0 1.029955,0.38029 0.427826,0.38029 0.58628,1.04581 h 0.06338 q 0.0317,-0.66552 0.427828,-1.04581 0.396135,-0.38029 1.045803,-0.38029 0.79227,0 1.23594,0.60212 0.45952,0.58628 0.45952,1.61623 v 6.65508 h -1.948992 v -6.3857 q 0,-0.87149 -0.633817,-0.87149 -0.316908,0 -0.443673,0.23768 -0.126763,0.22173 -0.126763,0.63381 v 6.3857 h -1.948988 v -6.3857 q 0,-0.87149 -0.633818,-0.87149 -0.316909,0 -0.443672,0.23768 -0.126763,0.22173 -0.126763,0.63381 v 6.3857 h -1.948991 v -8.71499 z"
           style="font-size:6.66753px;font-family:'JetBrainsMonoExtraBold Nerd Font';-inkscape-font-specification:'JetBrainsMonoExtraBold Nerd Font';stroke-width:4.99069;fill:#ffffff;fill-opacity:1"
           id="path915" />
        <path
           d="m 103.05366,178.54166 q 0,-1.33101 0.96657,-2.09159 0.96657,-0.77643 2.63035,-0.77643 h 1.8856 v -0.77643 q 0,-0.45952 -0.39613,-0.74473 -0.38029,-0.28523 -1.0458,-0.28523 -0.58628,0 -0.98242,0.22197 -0.38029,0.20604 -0.49121,0.57043 h -2.29759 q 0.0951,-0.60213 0.39614,-1.07748 0.31691,-0.49123 0.80812,-0.82396 0.4912,-0.34861 1.14087,-0.5229 0.64966,-0.19012 1.42609,-0.19012 0.85565,0 1.55285,0.20604 0.71305,0.20604 1.20425,0.58626 0.50706,0.36446 0.77643,0.88736 0.28522,0.52288 0.28522,1.17255 v 6.02126 h -2.2659 v -1.74298 h -0.14261 q -0.11091,0.88735 -0.83981,1.3944 -0.71305,0.50705 -1.82223,0.50705 -1.28348,0 -2.04406,-0.68135 -0.74473,-0.68136 -0.74473,-1.85393 z m 3.75537,0.71304 q 0.76058,0 1.23594,-0.34858 0.49121,-0.36446 0.49121,-0.91905 v -0.88734 h -1.8856 q -0.5546,0 -0.88735,0.28523 -0.33275,0.26936 -0.33275,0.77641 0,0.50707 0.3486,0.80813 0.36444,0.2852 1.02995,0.2852 z"
           style="font-size:6.66753px;font-family:'JetBrainsMonoExtraBold Nerd Font';-inkscape-font-specification:'JetBrainsMonoExtraBold Nerd Font';stroke-width:4.99069;fill:#ffffff;fill-opacity:1"
           id="path917" />
        <path
           d="m 115.30219,176.40254 -2.88387,-4.19906 h 2.64619 l 1.2201,1.80639 q 0.0792,0.12667 0.12676,0.23767 0.0634,0.0951 0.0951,0.17444 0.0317,0.11098 0.0634,0.19012 h 0.12676 q 0.0159,-0.0791 0.0634,-0.17444 0.0317,-0.0791 0.0792,-0.19012 0.0634,-0.11098 0.14262,-0.23767 l 1.2201,-1.80639 h 2.64619 l -2.86803,4.19906 3.07402,4.51593 h -2.64619 l -1.41024,-2.10744 q -0.15847,-0.26937 -0.23769,-0.42782 -0.0317,-0.0951 -0.0634,-0.17419 h -0.12676 q -0.0317,0.0791 -0.0634,0.17419 -0.0317,0.0791 -0.0951,0.19012 -0.0475,0.0951 -0.12676,0.22173 l -1.42609,2.12327 h -2.64619 z"
           style="font-size:6.66753px;font-family:'JetBrainsMonoExtraBold Nerd Font';-inkscape-font-specification:'JetBrainsMonoExtraBold Nerd Font';stroke-width:4.99069;fill:#ffffff;fill-opacity:1"
           id="path919" />
      </g>
    </g>
  </g>
</svg>
