<?xml version="1.0" encoding="UTF-8" standalone="no"?>
<svg
   width="226"
   height="36"
   viewBox="0 0 226 36"
   fill="none"
   version="1.1"
   id="svg4"
   sodipodi:docname="logo_dark.svg"
   inkscape:version="1.3 (0e150ed6c4, 2023-07-21)"
   xmlns:inkscape="http://www.inkscape.org/namespaces/inkscape"
   xmlns:sodipodi="http://sodipodi.sourceforge.net/DTD/sodipodi-0.dtd"
   xmlns="http://www.w3.org/2000/svg"
   xmlns:svg="http://www.w3.org/2000/svg">
  <defs
     id="defs4" />
  <sodipodi:namedview
     id="namedview4"
     pagecolor="#ffffff"
     bordercolor="#000000"
     borderopacity="0.25"
     inkscape:showpageshadow="2"
     inkscape:pageopacity="0.0"
     inkscape:pagecheckerboard="0"
     inkscape:deskcolor="#d1d1d1"
     showgrid="false"
     inkscape:zoom="3.9867257"
     inkscape:cx="149.74695"
     inkscape:cy="21.697003"
     inkscape:window-width="2532"
     inkscape:window-height="1493"
     inkscape:window-x="14"
     inkscape:window-y="52"
     inkscape:window-maximized="1"
     inkscape:current-layer="svg4" />
  <g
     id="g4"
     style="stroke:none;fill:#f2efef;fill-opacity:1">
    <path
       d="M86.3784 0V11.9336H90.3558V7.95615H102.489V11.9336H106.467V16.1103H102.291V12.133H90.5552V23.8671H102.291V19.8897H106.467V24.0665H102.489V28.0439H90.3558V24.0665H86.3784V36H134.114V7.95615H138.291V11.9336H142.07V7.95615H150.224V11.9336H154.202V24.0665H150.224V28.0439H138.291V36H225.805V28.0439H221.629V12.133H213.872V16.1103H209.893V28.0439H205.716V7.95615H209.893V11.9336H213.672V7.95615H221.827V11.9336H225.805V0H170.114V23.8671H178.07V28.0439H169.941L169.927 24.0796L165.937 24.0669V4.17725H157.981V0.00042608L86.3784 0ZM114.224 7.95615H126.357V11.9336H130.335V28.0439H114.224V24.0665H110.245V19.8897H114.224V15.9123H126.158V12.133H114.224V7.95615ZM185.827 7.95615H197.96V11.9336H201.937V28.0439H185.827V24.0665H181.849V19.8897H185.827V15.9123H197.76V12.133H185.827V7.95615ZM142.268 12.133V16.1103H138.291V23.8671H150.025V12.133H142.268ZM114.422 20.089V23.8671H126.158V20.089H114.422ZM186.026 20.089V23.8671H197.76V20.089H186.026Z"
       fill="white"
       id="path1"
       style="stroke:none;fill:#f2efef;fill-opacity:1" />
    <path
       d="M27.3821 23.0277C27.3821 20.7752 28.2 19.0053 29.8357 17.7182C31.4715 16.4042 33.6972 15.7472 36.5129 15.7472H41.2995V13.7762C41.2995 12.9986 40.9643 12.3684 40.2939 11.8857C39.6503 11.403 38.7654 11.1617 37.6391 11.1617C36.647 11.1617 35.8157 11.3495 35.1453 11.7251C34.5017 12.0738 34.086 12.5565 33.8983 13.1732H28.0659C28.2268 12.1542 28.562 11.2424 29.0715 10.438C29.6078 9.60666 30.2916 8.90946 31.1229 8.34636C31.9542 7.7564 32.9195 7.31393 34.019 7.01897C35.1184 6.69722 36.3252 6.53638 37.6391 6.53638C39.0872 6.53638 40.4012 6.71072 41.5811 7.05941C42.7878 7.4081 43.8068 7.90417 44.6381 8.54763C45.4962 9.16442 46.1532 9.91527 46.609 10.8002C47.0917 11.6851 47.3331 12.6773 47.3331 13.7767V29.0617H41.5811V24.6371H41.219C41.0313 26.1388 40.3207 27.3188 39.0872 28.1769C37.8805 29.035 36.3385 29.464 34.4614 29.464C32.2894 29.464 30.5597 28.8875 29.2726 27.7344C28.0122 26.5813 27.3821 25.0126 27.3821 23.0282V23.0277ZM36.9151 24.8378C38.2023 24.8378 39.2481 24.5428 40.0526 23.9529C40.8838 23.3361 41.2995 22.5584 41.2995 21.6199V19.3674H36.5129C35.5743 19.3674 34.8235 19.6087 34.2603 20.0914C33.6972 20.5473 33.4157 21.2042 33.4157 22.0623C33.4157 22.9205 33.7106 23.6043 34.3006 24.1138C34.9173 24.5965 35.7888 24.8378 36.9151 24.8378Z"
       fill="white"
       id="path2"
       style="stroke:none;fill:#f2efef;fill-opacity:1" />
    <path
       d="M58.4751 17.5975L51.1543 6.93816H57.8717L60.9689 11.5237C61.103 11.7381 61.2102 11.9392 61.2907 12.127C61.398 12.288 61.4785 12.4356 61.5321 12.5698C61.5858 12.7577 61.6394 12.9186 61.6931 13.0525H62.0149C62.0418 12.9186 62.0954 12.771 62.1758 12.6097C62.2294 12.4758 62.2965 12.3149 62.3768 12.127C62.4841 11.9392 62.6048 11.7381 62.7389 11.5237L65.8361 6.93816H72.5535L65.273 17.5975L73.0764 29.0612H66.359L62.7791 23.7115C62.5109 23.2556 62.3098 22.8936 62.1757 22.6254C62.1221 22.4645 62.0685 22.3171 62.0148 22.1833H61.693C61.6394 22.3171 61.5857 22.4645 61.5321 22.6254C61.4784 22.7593 61.398 22.9202 61.2907 23.1081C61.2103 23.269 61.103 23.4566 60.9689 23.6709L57.3487 29.0609H50.6314L58.4751 17.5975Z"
       fill="white"
       id="path3"
       style="stroke:none;fill:#f2efef;fill-opacity:1" />
    <path
       d="M24.0838 29.0612H18.4642V13.5406C18.4642 12.9162 18.3007 12.4553 17.9736 12.158C17.6763 11.8309 17.2749 11.6674 16.7695 11.6674C16.1748 11.6674 15.6991 11.8458 15.3423 12.2026C15.0152 12.5594 14.8517 13.0946 14.8517 13.8082V29.0612H9.23214V13.5406C9.23214 12.9162 9.05374 12.4553 8.69694 12.158C8.36988 11.8309 7.96848 11.6674 7.49275 11.6674C6.95756 11.6674 6.51156 11.8458 6.15477 12.2026C5.79797 12.5594 5.61958 13.0946 5.61958 13.8082V29.0612H3.05176e-05V6.93986H5.61958V9.08064H6.42236C6.60076 8.27785 7.00216 7.6237 7.62655 7.11823C8.28068 6.58305 9.12807 6.31546 10.1687 6.31546C11.1499 6.31546 11.9824 6.58305 12.6663 7.11823C13.3502 7.6237 13.811 8.27785 14.0489 9.08064H14.8517C15.0895 8.27785 15.5801 7.6237 16.3235 7.11823C17.0965 6.58305 18.048 6.31546 19.1778 6.31546C20.6645 6.31546 21.8538 6.82092 22.7458 7.83184C23.6378 8.81302 24.0838 10.1808 24.0838 11.935V29.0612Z"
       fill="white"
       id="path4"
       style="stroke:none;fill:#f2efef;fill-opacity:1" />
  </g>
</svg>
