<?xml version="1.0" standalone="no"?>
<!DOCTYPE svg PUBLIC "-//W3C//DTD SVG 20010904//EN"
 "http://www.w3.org/TR/2001/REC-SVG-20010904/DTD/svg10.dtd">
<svg version="1.0" xmlns="http://www.w3.org/2000/svg"
 width="700.000000pt" height="700.000000pt" viewBox="0 0 700.000000 700.000000"
 preserveAspectRatio="xMidYMid meet">
<metadata>
Created by potrace 1.14, written by Peter Selinger 2001-2017
</metadata>
<g transform="translate(0.000000,700.000000) scale(0.100000,-0.100000)"
fill="#000000" stroke="none">
<path d="M3775 5405 c0 -525 2 -956 5 -956 3 -1 145 -2 317 -3 305 -1 312 -1
315 19 2 11 3 154 3 317 -1 197 3 299 10 301 20 5 1925 1 1931 -5 3 -4 6 -147
5 -320 l0 -313 320 0 319 0 0 957 0 958 -1613 0 -1612 0 0 -955z"/>
<path d="M1107 5124 c-165 -39 -296 -155 -355 -316 -12 -32 -20 -58 -17 -58 2
0 0 -11 -5 -25 -6 -15 -11 -46 -12 -70 -1 -40 -3 -44 -27 -42 -14 1 -28 5 -31
9 -3 3 -5 107 -4 231 0 220 0 225 -20 229 -12 2 -158 3 -326 3 l-305 -1 -3
-1612 -2 -1612 27 0 c162 -2 687 1 690 4 2 2 5 561 6 1242 2 1153 4 1243 20
1292 34 99 95 144 197 144 114 -1 182 -63 216 -197 4 -16 9 -580 9 -1253 1
-672 4 -1225 7 -1227 4 -5 272 -7 640 -5 l77 0 0 1228 c0 1321 -1 1293 51
1377 30 48 90 77 159 76 91 0 159 -38 194 -107 40 -80 41 -91 41 -1356 l0
-1218 58 0 c75 -1 531 -1 606 0 l57 0 -1 1288 c-1 708 -4 1309 -8 1336 -31
227 -102 386 -229 508 -102 100 -227 146 -389 146 -308 0 -511 -180 -543 -483
-2 -16 -4 -33 -4 -37 -2 -15 -31 5 -31 21 0 9 -10 43 -23 76 -79 212 -231 361
-417 409 -70 18 -227 18 -303 0z"/>
<path d="M4505 4410 l-60 -5 0 -938 0 -937 943 0 942 0 0 320 c0 251 3 321 13
319 6 -1 157 -1 335 0 l322 1 -2 302 -3 302 -332 0 -333 0 -2 319 -3 320 -880
1 c-484 0 -907 -1 -940 -4z"/>
<path d="M3777 2486 c-2 -6 -3 -436 -3 -956 l1 -945 1613 -3 1612 -2 0 958 0
959 -319 0 -319 0 -1 -315 c0 -173 -2 -316 -4 -319 -7 -6 -1929 -4 -1936 2 -3
4 -6 147 -6 318 l-1 312 -316 1 c-223 1 -318 -2 -321 -10z"/>
</g>
</svg>
