<?xml version="1.0" encoding="UTF-8" standalone="no"?>
<!-- Created with Inkscape (http://www.inkscape.org/) -->

<svg
   width="7.3772278mm"
   height="8.3084373mm"
   viewBox="0 0 7.3772277 8.3084377"
   version="1.1"
   id="svg979"
   xmlns="http://www.w3.org/2000/svg"
   xmlns:svg="http://www.w3.org/2000/svg"
   xmlns:rdf="http://www.w3.org/1999/02/22-rdf-syntax-ns#">
  <defs
     id="defs976" />
  <g
     id="layer1"
     transform="translate(-85.106879,-69.002825)">
    <path
       id="path8"
       style="font-weight:800;font-size:14.1111px;font-family:'JetBrains Mono';-inkscape-font-specification:'JetBrains Mono Ultra-Bold';fill:#0c0c0c;fill-opacity:1;stroke:#181818;stroke-width:0.265;stroke-opacity:1"
       d="m 88.795235,69.135325 c -0.536221,0 -1.025463,0.07531 -1.467611,0.225826 -0.43274,0.150519 -0.804217,0.361772 -1.114661,0.634587 -0.310443,0.272815 -0.550003,0.602351 -0.719336,0.988053 -0.169329,0.376296 -0.254248,0.79023 -0.254248,1.241785 v 1.848466 c 0,0.451554 0.08492,0.870035 0.254248,1.255737 0.169333,0.376296 0.408893,0.705832 0.719336,0.988054 0.310444,0.272814 0.681921,0.484585 1.114661,0.635103 0.442148,0.150518 0.93139,0.225826 1.467611,0.225826 0.536221,0 1.020917,-0.07531 1.453658,-0.225826 0.442146,-0.150518 0.818168,-0.362289 1.128613,-0.635103 0.310444,-0.282222 0.55052,-0.611758 0.719853,-0.988054 0.16933,-0.385702 0.254248,-0.804183 0.254248,-1.255737 v -1.848466 c 0,-0.451555 -0.08491,-0.865489 -0.254248,-1.241785 -0.169333,-0.385702 -0.409409,-0.715238 -0.719853,-0.988053 -0.310445,-0.272815 -0.686467,-0.484068 -1.128613,-0.634587 -0.432741,-0.150517 -0.917437,-0.225826 -1.453658,-0.225826 z m 0,1.834514 c 0.442147,0 0.790381,0.112703 1.04438,0.33848 0.263407,0.225778 0.395325,0.531554 0.395325,0.917257 v 1.848466 c 0,0.385703 -0.131918,0.69148 -0.395325,0.917257 -0.253999,0.225777 -0.602233,0.33848 -1.04438,0.33848 -0.442147,0 -0.794927,-0.112703 -1.058334,-0.33848 -0.253999,-0.225777 -0.380855,-0.531554 -0.380855,-0.917257 v -1.848466 c 0,-0.385703 0.126856,-0.691479 0.380855,-0.917257 0.263407,-0.225777 0.616187,-0.33848 1.058334,-0.33848 z" />
  </g>
  <metadata
     id="metadata1121">
    <rdf:RDF />
  </metadata>
</svg>
