<?xml version="1.0" encoding="UTF-8" standalone="no"?>
<!-- Created with Inkscape (http://www.inkscape.org/) -->

<svg
   width="3123.0818"
   height="613"
   viewBox="0 0 826.31538 162.18958"
   version="1.1"
   id="svg979"
   sodipodi:docname="projects_bg_text.svg"
   inkscape:version="1.3 (0e150ed6c4, 2023-07-21)"
   xmlns:inkscape="http://www.inkscape.org/namespaces/inkscape"
   xmlns:sodipodi="http://sodipodi.sourceforge.net/DTD/sodipodi-0.dtd"
   xmlns="http://www.w3.org/2000/svg"
   xmlns:svg="http://www.w3.org/2000/svg"
   xmlns:rdf="http://www.w3.org/1999/02/22-rdf-syntax-ns#"
   xmlns:cc="http://creativecommons.org/ns#"
   xmlns:dc="http://purl.org/dc/elements/1.1/">
  <sodipodi:namedview
     id="namedview1"
     pagecolor="#ffffff"
     bordercolor="#000000"
     borderopacity="0.25"
     inkscape:showpageshadow="2"
     inkscape:pageopacity="0.0"
     inkscape:pagecheckerboard="0"
     inkscape:deskcolor="#d1d1d1"
     showgrid="false"
     inkscape:zoom="5.395121"
     inkscape:cx="2951.5557"
     inkscape:cy="289.24282"
     inkscape:window-width="2560"
     inkscape:window-height="1521"
     inkscape:window-x="0"
     inkscape:window-y="38"
     inkscape:window-maximized="1"
     inkscape:current-layer="svg979" />
  <defs
     id="defs976">
    <rect
       x="583.33185"
       y="548"
       width="464.11652"
       height="129.54134"
       id="rect2" />
    <rect
       x="158.19209"
       y="338.17596"
       width="347.05408"
       height="161.82405"
       id="rect1" />
  </defs>
  <path
     style="font-weight:800;font-size:64px;line-height:1;font-family:'JetBrains Mono';-inkscape-font-specification:'JetBrains Mono Ultra-Bold';white-space:pre;fill:#0c0c0c;fill-opacity:1;stroke:#212121;stroke-width:1.58749997;stroke-linejoin:miter;stroke-dasharray:none;stroke-opacity:1"
     d="m 11.267598,37.36657 h 24.839754 v 16.45216 h 1.7131 q 1.3705,-8.48588 7.70885,-13.33497 6.50968,-4.84914 16.61695,-4.84914 7.53757,0 13.5333,2.5977 5.99594,2.59784 10.27856,7.44698 4.45401,4.84894 6.68101,11.77622 2.39848,6.92724 2.39848,15.41312 v 23.37955 q 0,8.83213 -2.39848,15.93261 -2.227,6.92724 -6.68101,11.94962 -4.28262,4.84894 -10.27856,7.61979 -5.99573,2.59779 -13.5333,2.59779 -10.10727,0 -16.61695,-4.84904 -6.33835,-4.84909 -7.70885,-13.50807 h -1.7131 q 0.17103,1.38545 0.51399,6.23444 0.34305,4.84909 0.34305,10.39083 v 29.44093 H 11.268038 Z m 25.696354,36.36807 v 22.51355 q 0,6.75403 4.28263,11.08352 4.28272,4.32964 11.99161,4.32964 7.70885,0 11.82034,-4.50279 4.28273,-4.50269 4.28273,-11.77632 v -21.6476 q 0,-7.27364 -4.45411,-11.42993 -4.28262,-4.15644 -11.64896,-4.15644 -7.36623,0 -11.82024,4.32949 -4.454,4.15634 -4.454,11.25688 z M 141.63348,37.36657 v 16.45216 h 1.71311 q 1.37045,-8.83228 8.05151,-13.50822 6.68101,-4.67589 17.64484,-4.67589 15.58907,0 24.15457,9.69823 8.56525,9.52493 8.56525,26.66984 v 7.79314 H 174.3535 v -6.06119 q 0,-7.79314 -4.45411,-12.12277 -4.45395,-4.32959 -12.16294,-4.32959 -6.85234,0 -10.79236,4.50278 -3.94011,4.32959 -3.94011,11.94958 v 58.88152 h -25.6962 V 37.36657 Z m 115.8046,96.98143 q -9.76457,0 -17.81607,-2.77079 -7.88023,-2.7709 -13.53335,-7.79319 -5.65322,-5.19548 -8.73668,-12.12267 -3.08361,-7.10053 -3.08361,-15.41316 V 73.56134 q 0,-8.31268 3.08361,-15.23982 3.08346,-7.10053 8.73668,-12.12277 5.65312,-5.02224 13.53335,-7.79313 8.0515,-2.771 17.81607,-2.771 9.76466,0 17.64474,2.771 8.05151,2.77089 13.70478,7.79313 5.65317,5.02224 8.73678,12.12277 3.08351,6.92714 3.08351,15.23982 v 22.68685 q 0,8.31263 -3.08351,15.41316 -3.08361,6.92719 -8.73678,12.12267 -5.65327,5.02229 -13.70478,7.79319 -7.88008,2.77079 -17.64474,2.77079 z M 239.96467,96.24819 q 0,7.10053 4.62533,11.25682 4.79662,4.15634 12.84808,4.15634 8.0516,0 12.67689,-4.15634 4.79662,-4.15629 4.79662,-11.25682 V 73.56134 q 0,-7.10034 -4.79662,-11.25663 -4.62529,-4.15644 -12.67689,-4.15644 -8.05146,0 -12.84808,4.15644 -4.62533,4.15629 -4.62533,11.25663 z m 82.57083,41.5635 h 29.12237 q 5.99578,0 9.4219,-3.46369 3.42622,-3.46349 3.42622,-9.52498 V 61.61187 h -36.83136 v -24.2453 h 62.52761 v 87.45645 q 0,8.48588 -2.56951,15.41317 -2.56962,6.92728 -7.36629,11.77622 -4.79666,4.84929 -11.64905,7.44698 -6.68101,2.5977 -15.07513,2.5977 H 322.5355 Z M 361.07977,12.25518 q 0,-5.54179 3.42622,-8.83223 3.5975,-3.29045 9.42201,-3.29045 h 5.13913 q 5.82465,0 9.25072,3.29045 3.59745,3.29044 3.59745,8.83223 0,5.54178 -3.59745,8.83228 -3.42607,3.29044 -9.42185,3.29044 h -4.968 q -5.82451,0 -9.42201,-3.29044 -3.42622,-3.2905 -3.42622,-8.83228 z m 58.75898,61.30616 q 0,-8.65903 3.08351,-15.58632 3.08361,-6.92718 8.73673,-11.94957 5.65327,-5.02219 13.53345,-7.61983 8.0515,-2.771 17.81612,-2.771 9.59323,0 17.47341,2.771 7.88018,2.77089 13.53335,7.79313 5.65322,5.02224 8.73683,12.12277 3.08355,6.92714 3.08355,15.41312 V 91.0527 h -60.64326 v 5.19549 q 0,8.65898 4.62533,13.50817 4.62529,4.67584 13.19079,4.67584 6.33844,0 10.79235,-2.07825 4.45411,-2.0781 5.99584,-5.71489 h 25.18235 q -1.54178,6.23449 -5.48199,11.42993 -3.76863,5.02234 -9.25048,8.65903 -5.48198,3.63679 -12.50551,5.71504 -6.85248,1.90494 -14.73256,1.90494 -9.76462,0 -17.81612,-2.77079 -7.88018,-2.7709 -13.53345,-7.62013 -5.65312,-5.0221 -8.73673,-12.12258 -3.08351,-7.10043 -3.08351,-15.58631 z m 25.35369,1.90504 h 35.80342 v -1.73174 q 0,-8.65913 -4.79657,-13.33502 -4.62538,-4.84899 -13.19073,-4.84899 -8.39412,0 -13.19079,4.84899 -4.62533,4.67589 -4.62533,13.16172 z M 566.65025,134.348 q -9.76456,0 -17.81617,-2.59779 -7.88012,-2.59765 -13.53325,-7.44664 -5.65322,-4.84909 -8.73678,-11.60322 -3.0835,-6.92728 -3.0835,-15.41316 V 72.86864 q 0,-8.48588 3.0835,-15.23987 3.08356,-6.92733 8.73678,-11.77642 5.65313,-4.84909 13.53325,-7.44673 8.05161,-2.771 17.81617,-2.771 8.56536,0 15.93174,2.42465 7.36618,2.42449 13.0194,6.92718 5.65313,4.50269 9.42201,10.91038 3.76873,6.40788 5.13913,14.37412 h -25.69625 q -1.19912,-5.54179 -5.99574,-8.83223 -4.79666,-3.29045 -11.82029,-3.29045 -8.22278,0 -12.84817,3.98309 -4.62524,3.81014 -4.62524,10.73728 v 24.41855 q 0,6.92718 4.62524,10.73732 4.62539,3.80999 12.84817,3.80999 6.8523,0 11.64896,-3.29049 4.79667,-3.46369 6.16707,-9.00548 h 25.69625 q -1.3704,7.96648 -5.13913,14.37417 -3.76888,6.40763 -9.42201,11.08347 -5.65322,4.50279 -13.0194,6.92739 -7.36638,2.42444 -15.93174,2.42444 z m 56.53183,-96.98143 h 24.83979 V 7.92564 h 25.6963 v 29.44093 h 35.1182 v 23.3794 h -35.1182 v 38.96576 q 0,4.50264 2.39819,7.10048 2.56971,2.42455 7.02372,2.42455 h 23.98328 v 23.3794 h -26.5529 q -15.24651,0 -23.98334,-8.65908 -8.56525,-8.83214 -8.56525,-24.24535 V 60.74597 h -24.83979 z m 130.19445,70.13844 q 1.19927,3.98309 4.62548,6.06119 3.59751,2.07824 8.90802,2.07824 h 8.56545 q 7.1949,0 10.96363,-2.59774 3.76883,-2.5977 3.76883,-7.44669 0,-8.48588 -13.70468,-10.04457 l -12.84812,-1.38545 q -17.64469,-1.90509 -26.03881,-9.00538 -8.22279,-7.27363 -8.22279,-20.6086 0,-14.02777 9.59319,-21.47455 9.76456,-7.44684 27.9233,-7.44684 h 8.56545 q 17.13075,0 26.72408,6.58094 9.76462,6.58093 11.30639,19.5695 h -25.69624 q -1.88449,-7.61998 -12.33423,-7.61998 h -8.56545 q -12.67685,0 -12.67685,8.65908 0,8.31273 11.64886,9.69813 l 13.70478,1.55865 q 35.46096,4.15629 35.46096,30.47988 0,14.72042 -10.10732,22.34045 -10.10713,7.44673 -29.46498,7.44673 h -8.56545 q -17.64484,0 -27.58064,-6.75408 -9.93585,-6.92724 -11.64906,-20.08891 z"
     id="text2"
     aria-label="projects" />
  <metadata
     id="metadata1121">
    <rdf:RDF>
      <cc:Work
         rdf:about="">
        <dc:creator>
          <cc:Agent>
            <dc:title>Max Caplan</dc:title>
          </cc:Agent>
        </dc:creator>
        <cc:license
           rdf:resource="http://creativecommons.org/licenses/by-nc/4.0/" />
      </cc:Work>
      <cc:License
         rdf:about="http://creativecommons.org/licenses/by-nc/4.0/">
        <cc:permits
           rdf:resource="http://creativecommons.org/ns#Reproduction" />
        <cc:permits
           rdf:resource="http://creativecommons.org/ns#Distribution" />
        <cc:requires
           rdf:resource="http://creativecommons.org/ns#Notice" />
        <cc:requires
           rdf:resource="http://creativecommons.org/ns#Attribution" />
        <cc:prohibits
           rdf:resource="http://creativecommons.org/ns#CommercialUse" />
        <cc:permits
           rdf:resource="http://creativecommons.org/ns#DerivativeWorks" />
      </cc:License>
    </rdf:RDF>
  </metadata>
</svg>
